<svg width="313" height="69" viewBox="0 0 313 69" fill="none" xmlns="http://www.w3.org/2000/svg">
<mask id="path-1-outside-1_459_2" maskUnits="userSpaceOnUse" x="-2" y="-2" width="316" height="73" fill="black">
<rect fill="white" x="-2" y="-2" width="316" height="73"/>
<path d="M22.232 68.536C18.136 68.536 14.424 67.768 11.096 66.232C7.85333 64.6107 5.25067 62.136 3.288 58.808C1.32533 55.3947 0.344001 51.0427 0.344001 45.752V1.71999H12.12V47.8C12.12 50.104 12.5893 52.0667 13.528 53.688C14.4667 55.3093 15.704 56.504 17.24 57.272C18.776 58.04 20.3973 58.424 22.104 58.424C23.8107 58.424 25.432 58.04 26.968 57.272C28.504 56.4187 29.7413 55.224 30.68 53.688C31.704 52.0667 32.216 50.104 32.216 47.8V22.456C32.216 17.4213 33.1547 13.2827 35.032 10.04C36.9093 6.712 39.4693 4.23733 42.712 2.616C45.9547 0.994665 49.624 0.183998 53.72 0.183998C57.816 0.183998 61.4853 0.994665 64.728 2.616C67.9707 4.23733 70.5307 6.712 72.408 10.04C74.2853 13.2827 75.224 17.4213 75.224 22.456V47.8C75.224 50.104 75.6933 52.0667 76.632 53.688C77.5707 55.224 78.808 56.4187 80.344 57.272C81.88 58.04 83.544 58.424 85.336 58.424C87.128 58.424 88.7493 58.04 90.2 57.272C91.6507 56.4187 92.8453 55.224 93.784 53.688C94.7227 52.0667 95.192 50.104 95.192 47.8V1.71999H107.096V45.752C107.096 51.0427 106.115 55.3947 104.152 58.808C102.189 62.136 99.544 64.6107 96.216 66.232C92.9733 67.768 89.3467 68.536 85.336 68.536C81.4107 68.536 77.784 67.768 74.456 66.232C71.128 64.6107 68.44 62.136 66.392 58.808C64.4293 55.3947 63.448 51.0427 63.448 45.752V20.664C63.448 18.2747 62.9787 16.312 62.04 14.776C61.1013 13.24 59.9067 12.1307 58.456 11.448C57.0053 10.68 55.4267 10.296 53.72 10.296C52.0133 10.296 50.392 10.68 48.856 11.448C47.4053 12.1307 46.2107 13.24 45.272 14.776C44.4187 16.312 43.992 18.2747 43.992 20.664V45.752C43.992 51.0427 42.968 55.3947 40.92 58.808C38.9573 62.136 36.312 64.6107 32.984 66.232C29.7413 67.768 26.1573 68.536 22.232 68.536ZM156.564 68.536C149.908 68.536 144.02 67.0427 138.9 64.056C133.78 60.984 129.727 56.888 126.74 51.768C123.753 46.5627 122.26 40.76 122.26 34.36C122.26 27.96 123.753 22.2 126.74 17.08C129.727 11.8747 133.78 7.77866 138.9 4.792C144.02 1.72 149.908 0.183998 156.564 0.183998C163.22 0.183998 169.108 1.72 174.228 4.792C179.433 7.77866 183.487 11.832 186.388 16.952C189.375 22.072 190.868 27.8747 190.868 34.36C190.868 40.76 189.375 46.5627 186.388 51.768C183.487 56.888 179.433 60.984 174.228 64.056C169.108 67.0427 163.22 68.536 156.564 68.536ZM156.564 58.424C161.087 58.424 165.012 57.3573 168.34 55.224C171.668 53.0907 174.271 50.232 176.148 46.648C178.025 42.9787 178.964 38.8827 178.964 34.36C178.964 29.8373 178.025 25.784 176.148 22.2C174.271 18.5307 171.668 15.6293 168.34 13.496C165.012 11.3627 161.087 10.296 156.564 10.296C152.127 10.296 148.201 11.3627 144.788 13.496C141.46 15.6293 138.857 18.5307 136.98 22.2C135.103 25.784 134.164 29.8373 134.164 34.36C134.164 38.8827 135.103 42.9787 136.98 46.648C138.857 50.232 141.46 53.0907 144.788 55.224C148.201 57.3573 152.127 58.424 156.564 58.424ZM205.585 67V20.28C205.585 14.4773 207.206 9.95466 210.449 6.712C213.777 3.384 218.342 1.71999 224.145 1.71999H237.585V11.832H226.321C223.505 11.832 221.286 12.6427 219.665 14.264C218.129 15.8853 217.361 18.1467 217.361 21.048V67H205.585ZM275.605 68.536C269.29 68.536 263.829 67.0427 259.221 64.056C254.613 60.984 251.072 56.8453 248.597 51.64C246.122 46.4347 244.885 40.6747 244.885 34.36C244.885 27.96 246.25 22.2 248.981 17.08C251.712 11.8747 255.637 7.77866 260.757 4.792C265.877 1.72 272.021 0.183998 279.189 0.183998C286.101 0.183998 292.032 1.67733 296.981 4.664C301.93 7.65066 305.728 11.704 308.373 16.824C311.104 21.944 312.469 27.6613 312.469 33.976V67H300.565V53.688H300.309C299.029 56.1627 297.28 58.552 295.061 60.856C292.928 63.0747 290.24 64.9093 286.997 66.36C283.754 67.8107 279.957 68.536 275.605 68.536ZM278.677 58.424C282.944 58.424 286.698 57.4 289.941 55.352C293.269 53.2187 295.829 50.3173 297.621 46.648C299.498 42.8933 300.437 38.712 300.437 34.104C300.437 29.5813 299.541 25.528 297.749 21.944C296.042 18.36 293.568 15.544 290.325 13.496C287.082 11.3627 283.285 10.296 278.933 10.296C274.325 10.296 270.357 11.3627 267.029 13.496C263.786 15.6293 261.269 18.5307 259.477 22.2C257.77 25.784 256.917 29.88 256.917 34.488C256.917 38.9253 257.77 42.9787 259.477 46.648C261.184 50.232 263.658 53.0907 266.901 55.224C270.144 57.3573 274.069 58.424 278.677 58.424Z"/>
</mask>
<path d="M22.232 68.536C18.136 68.536 14.424 67.768 11.096 66.232C7.85333 64.6107 5.25067 62.136 3.288 58.808C1.32533 55.3947 0.344001 51.0427 0.344001 45.752V1.71999H12.12V47.8C12.12 50.104 12.5893 52.0667 13.528 53.688C14.4667 55.3093 15.704 56.504 17.24 57.272C18.776 58.04 20.3973 58.424 22.104 58.424C23.8107 58.424 25.432 58.04 26.968 57.272C28.504 56.4187 29.7413 55.224 30.68 53.688C31.704 52.0667 32.216 50.104 32.216 47.8V22.456C32.216 17.4213 33.1547 13.2827 35.032 10.04C36.9093 6.712 39.4693 4.23733 42.712 2.616C45.9547 0.994665 49.624 0.183998 53.72 0.183998C57.816 0.183998 61.4853 0.994665 64.728 2.616C67.9707 4.23733 70.5307 6.712 72.408 10.04C74.2853 13.2827 75.224 17.4213 75.224 22.456V47.8C75.224 50.104 75.6933 52.0667 76.632 53.688C77.5707 55.224 78.808 56.4187 80.344 57.272C81.88 58.04 83.544 58.424 85.336 58.424C87.128 58.424 88.7493 58.04 90.2 57.272C91.6507 56.4187 92.8453 55.224 93.784 53.688C94.7227 52.0667 95.192 50.104 95.192 47.8V1.71999H107.096V45.752C107.096 51.0427 106.115 55.3947 104.152 58.808C102.189 62.136 99.544 64.6107 96.216 66.232C92.9733 67.768 89.3467 68.536 85.336 68.536C81.4107 68.536 77.784 67.768 74.456 66.232C71.128 64.6107 68.44 62.136 66.392 58.808C64.4293 55.3947 63.448 51.0427 63.448 45.752V20.664C63.448 18.2747 62.9787 16.312 62.04 14.776C61.1013 13.24 59.9067 12.1307 58.456 11.448C57.0053 10.68 55.4267 10.296 53.72 10.296C52.0133 10.296 50.392 10.68 48.856 11.448C47.4053 12.1307 46.2107 13.24 45.272 14.776C44.4187 16.312 43.992 18.2747 43.992 20.664V45.752C43.992 51.0427 42.968 55.3947 40.92 58.808C38.9573 62.136 36.312 64.6107 32.984 66.232C29.7413 67.768 26.1573 68.536 22.232 68.536ZM156.564 68.536C149.908 68.536 144.02 67.0427 138.9 64.056C133.78 60.984 129.727 56.888 126.74 51.768C123.753 46.5627 122.26 40.76 122.26 34.36C122.26 27.96 123.753 22.2 126.74 17.08C129.727 11.8747 133.78 7.77866 138.9 4.792C144.02 1.72 149.908 0.183998 156.564 0.183998C163.22 0.183998 169.108 1.72 174.228 4.792C179.433 7.77866 183.487 11.832 186.388 16.952C189.375 22.072 190.868 27.8747 190.868 34.36C190.868 40.76 189.375 46.5627 186.388 51.768C183.487 56.888 179.433 60.984 174.228 64.056C169.108 67.0427 163.22 68.536 156.564 68.536ZM156.564 58.424C161.087 58.424 165.012 57.3573 168.34 55.224C171.668 53.0907 174.271 50.232 176.148 46.648C178.025 42.9787 178.964 38.8827 178.964 34.36C178.964 29.8373 178.025 25.784 176.148 22.2C174.271 18.5307 171.668 15.6293 168.34 13.496C165.012 11.3627 161.087 10.296 156.564 10.296C152.127 10.296 148.201 11.3627 144.788 13.496C141.46 15.6293 138.857 18.5307 136.98 22.2C135.103 25.784 134.164 29.8373 134.164 34.36C134.164 38.8827 135.103 42.9787 136.98 46.648C138.857 50.232 141.46 53.0907 144.788 55.224C148.201 57.3573 152.127 58.424 156.564 58.424ZM205.585 67V20.28C205.585 14.4773 207.206 9.95466 210.449 6.712C213.777 3.384 218.342 1.71999 224.145 1.71999H237.585V11.832H226.321C223.505 11.832 221.286 12.6427 219.665 14.264C218.129 15.8853 217.361 18.1467 217.361 21.048V67H205.585ZM275.605 68.536C269.29 68.536 263.829 67.0427 259.221 64.056C254.613 60.984 251.072 56.8453 248.597 51.64C246.122 46.4347 244.885 40.6747 244.885 34.36C244.885 27.96 246.25 22.2 248.981 17.08C251.712 11.8747 255.637 7.77866 260.757 4.792C265.877 1.72 272.021 0.183998 279.189 0.183998C286.101 0.183998 292.032 1.67733 296.981 4.664C301.93 7.65066 305.728 11.704 308.373 16.824C311.104 21.944 312.469 27.6613 312.469 33.976V67H300.565V53.688H300.309C299.029 56.1627 297.28 58.552 295.061 60.856C292.928 63.0747 290.24 64.9093 286.997 66.36C283.754 67.8107 279.957 68.536 275.605 68.536ZM278.677 58.424C282.944 58.424 286.698 57.4 289.941 55.352C293.269 53.2187 295.829 50.3173 297.621 46.648C299.498 42.8933 300.437 38.712 300.437 34.104C300.437 29.5813 299.541 25.528 297.749 21.944C296.042 18.36 293.568 15.544 290.325 13.496C287.082 11.3627 283.285 10.296 278.933 10.296C274.325 10.296 270.357 11.3627 267.029 13.496C263.786 15.6293 261.269 18.5307 259.477 22.2C257.77 25.784 256.917 29.88 256.917 34.488C256.917 38.9253 257.77 42.9787 259.477 46.648C261.184 50.232 263.658 53.0907 266.901 55.224C270.144 57.3573 274.069 58.424 278.677 58.424Z" fill="black"/>
<path d="M11.096 66.232L10.4252 67.5736L10.4461 67.5841L10.4674 67.5939L11.096 66.232ZM3.288 58.808L1.98764 59.5557L1.99176 59.5629L1.99595 59.57L3.288 58.808ZM0.344001 1.71999V0.219994H-1.156V1.71999H0.344001ZM12.12 1.71999H13.62V0.219994H12.12V1.71999ZM13.528 53.688L14.8261 52.9364L14.8261 52.9364L13.528 53.688ZM17.24 57.272L17.9108 55.9304L17.9108 55.9304L17.24 57.272ZM26.968 57.272L27.6388 58.6136L27.668 58.5991L27.6965 58.5832L26.968 57.272ZM30.68 53.688L29.4118 52.887L29.4059 52.8964L29.4001 52.9058L30.68 53.688ZM35.032 10.04L36.3301 10.7916L36.3343 10.7843L36.3385 10.777L35.032 10.04ZM42.712 2.616L42.0412 1.27436L42.0412 1.27436L42.712 2.616ZM64.728 2.616L64.0572 3.95764L64.728 2.616ZM72.408 10.04L71.1015 10.777L71.1057 10.7843L71.1099 10.7916L72.408 10.04ZM76.632 53.688L75.3339 54.4396L75.3428 54.455L75.3521 54.4702L76.632 53.688ZM80.344 57.272L79.6155 58.5832L79.644 58.5991L79.6732 58.6136L80.344 57.272ZM90.2 57.272L90.9018 58.5977L90.9316 58.5819L90.9605 58.5649L90.2 57.272ZM93.784 53.688L95.0639 54.4702L95.0732 54.455L95.0821 54.4396L93.784 53.688ZM95.192 1.71999V0.219994H93.692V1.71999H95.192ZM107.096 1.71999H108.596V0.219994H107.096V1.71999ZM104.152 58.808L105.444 59.57L105.448 59.5629L105.452 59.5557L104.152 58.808ZM96.216 66.232L96.8581 67.5876L96.8656 67.5841L96.873 67.5805L96.216 66.232ZM74.456 66.232L73.799 67.5805L73.8132 67.5874L73.8274 67.5939L74.456 66.232ZM66.392 58.808L65.0916 59.5557L65.1028 59.5751L65.1145 59.5941L66.392 58.808ZM62.04 14.776L60.7601 15.5582L60.7601 15.5582L62.04 14.776ZM58.456 11.448L57.7542 12.7737L57.7854 12.7902L57.8173 12.8052L58.456 11.448ZM48.856 11.448L49.4947 12.8052L49.5109 12.7976L49.5268 12.7896L48.856 11.448ZM45.272 14.776L43.9921 13.9938L43.9759 14.0204L43.9608 14.0475L45.272 14.776ZM40.92 58.808L39.6337 58.0362L39.628 58.046L40.92 58.808ZM32.984 66.232L33.6261 67.5876L33.6336 67.5841L33.641 67.5805L32.984 66.232ZM22.232 67.036C18.3274 67.036 14.8335 66.3049 11.7246 64.8701L10.4674 67.5939C14.0145 69.2311 17.9446 70.036 22.232 70.036V67.036ZM11.7668 64.8904C8.80001 63.407 6.40594 61.1421 4.58005 58.046L1.99595 59.57C4.09539 63.1299 6.90666 65.8144 10.4252 67.5736L11.7668 64.8904ZM4.58836 58.0603C2.79391 54.9395 1.844 50.8672 1.844 45.752H-1.156C-1.156 51.2181 -0.143242 55.8498 1.98764 59.5557L4.58836 58.0603ZM1.844 45.752V1.71999H-1.156V45.752H1.844ZM0.344001 3.21999H12.12V0.219994H0.344001V3.21999ZM10.62 1.71999V47.8H13.62V1.71999H10.62ZM10.62 47.8C10.62 50.3077 11.1317 52.5428 12.2299 54.4396L14.8261 52.9364C14.0469 51.5905 13.62 49.9003 13.62 47.8H10.62ZM12.2299 54.4396C13.3015 56.2906 14.7471 57.7026 16.5692 58.6136L17.9108 55.9304C16.6609 55.3054 15.6318 54.3281 14.8261 52.9364L12.2299 54.4396ZM16.5692 58.6136C18.3121 59.4851 20.163 59.924 22.104 59.924V56.924C20.6317 56.924 19.2399 56.5949 17.9108 55.9304L16.5692 58.6136ZM22.104 59.924C24.045 59.924 25.8959 59.4851 27.6388 58.6136L26.2972 55.9304C24.9681 56.5949 23.5763 56.924 22.104 56.924V59.924ZM27.6965 58.5832C29.4646 57.6009 30.8897 56.2215 31.9599 54.4702L29.4001 52.9058C28.593 54.2265 27.5434 55.2364 26.2395 55.9608L27.6965 58.5832ZM31.9482 54.489C33.1517 52.5835 33.716 50.3299 33.716 47.8H30.716C30.716 49.8781 30.2563 51.5499 29.4118 52.887L31.9482 54.489ZM33.716 47.8V22.456H30.716V47.8H33.716ZM33.716 22.456C33.716 17.5978 34.6229 13.7405 36.3301 10.7916L33.7339 9.28844C31.6865 12.8249 30.716 17.2449 30.716 22.456H33.716ZM36.3385 10.777C38.0773 7.69455 40.4224 5.43785 43.3828 3.95764L42.0412 1.27436C38.5163 3.03681 35.7414 5.72944 33.7255 9.30302L36.3385 10.777ZM43.3828 3.95764C46.3916 2.45326 49.8264 1.684 53.72 1.684V-1.316C49.4216 -1.316 45.5178 -0.463936 42.0412 1.27436L43.3828 3.95764ZM53.72 1.684C57.6136 1.684 61.0484 2.45326 64.0572 3.95764L65.3988 1.27436C61.9222 -0.463936 58.0184 -1.316 53.72 -1.316V1.684ZM64.0572 3.95764C67.0176 5.43785 69.3627 7.69455 71.1015 10.777L73.7145 9.30302C71.6986 5.72944 68.9237 3.03681 65.3988 1.27436L64.0572 3.95764ZM71.1099 10.7916C72.8171 13.7405 73.724 17.5978 73.724 22.456H76.724C76.724 17.2449 75.7536 12.8249 73.7061 9.28844L71.1099 10.7916ZM73.724 22.456V47.8H76.724V22.456H73.724ZM73.724 47.8C73.724 50.3077 74.2357 52.5428 75.3339 54.4396L77.9301 52.9364C77.1509 51.5905 76.724 49.9003 76.724 47.8H73.724ZM75.3521 54.4702C76.4224 56.2215 77.8474 57.6009 79.6155 58.5832L81.0725 55.9608C79.7686 55.2364 78.719 54.2265 77.9119 52.9058L75.3521 54.4702ZM79.6732 58.6136C81.4266 59.4904 83.3216 59.924 85.336 59.924V56.924C83.7664 56.924 82.3334 56.5896 81.0148 55.9304L79.6732 58.6136ZM85.336 59.924C87.3497 59.924 89.2155 59.4904 90.9018 58.5977L89.4982 55.9463C88.2831 56.5896 86.9063 56.924 85.336 56.924V59.924ZM90.9605 58.5649C92.6384 57.5779 94.0059 56.2015 95.0639 54.4702L92.5041 52.9058C91.6848 54.2465 90.663 55.2594 89.4395 55.9791L90.9605 58.5649ZM95.0821 54.4396C96.1803 52.5428 96.692 50.3077 96.692 47.8H93.692C93.692 49.9003 93.2651 51.5905 92.4859 52.9364L95.0821 54.4396ZM96.692 47.8V1.71999H93.692V47.8H96.692ZM95.192 3.21999H107.096V0.219994H95.192V3.21999ZM105.596 1.71999V45.752H108.596V1.71999H105.596ZM105.596 45.752C105.596 50.8672 104.646 54.9395 102.852 58.0603L105.452 59.5557C107.583 55.8498 108.596 51.2181 108.596 45.752H105.596ZM102.86 58.046C101.04 61.1321 98.6104 63.3969 95.559 64.8835L96.873 67.5805C100.478 65.8244 103.339 63.1399 105.444 59.57L102.86 58.046ZM95.5739 64.8764C92.5544 66.3066 89.1509 67.036 85.336 67.036V70.036C89.5424 70.036 93.3922 69.2294 96.8581 67.5876L95.5739 64.8764ZM85.336 67.036C81.6121 67.036 78.2018 66.3088 75.0846 64.8701L73.8274 67.5939C77.3662 69.2272 81.2093 70.036 85.336 70.036V67.036ZM75.113 64.8835C72.0555 63.394 69.5769 61.1214 67.6695 58.0219L65.1145 59.5941C67.3031 63.1506 70.2005 65.8273 73.799 67.5805L75.113 64.8835ZM67.6924 58.0603C65.8979 54.9395 64.948 50.8672 64.948 45.752H61.948C61.948 51.2181 62.9608 55.8498 65.0916 59.5557L67.6924 58.0603ZM64.948 45.752V20.664H61.948V45.752H64.948ZM64.948 20.664C64.948 18.0866 64.4423 15.8305 63.3199 13.9938L60.7601 15.5582C61.515 16.7935 61.948 18.4627 61.948 20.664H64.948ZM63.3199 13.9938C62.2477 12.2393 60.8425 10.9133 59.0947 10.0908L57.8173 12.8052C58.9708 13.3481 59.9549 14.2406 60.7601 15.5582L63.3199 13.9938ZM59.1578 10.1223C57.4822 9.23522 55.6613 8.796 53.72 8.796V11.796C55.1921 11.796 56.5285 12.1248 57.7542 12.7737L59.1578 10.1223ZM53.72 8.796C51.779 8.796 49.9281 9.23489 48.1852 10.1064L49.5268 12.7896C50.8559 12.1251 52.2477 11.796 53.72 11.796V8.796ZM48.2173 10.0908C46.4695 10.9133 45.0643 12.2393 43.9921 13.9938L46.5519 15.5582C47.3571 14.2406 48.3412 13.3481 49.4947 12.8052L48.2173 10.0908ZM43.9608 14.0475C42.947 15.8722 42.492 18.1075 42.492 20.664H45.492C45.492 18.4418 45.8903 16.7518 46.5832 15.5045L43.9608 14.0475ZM42.492 20.664V45.752H45.492V20.664H42.492ZM42.492 45.752C42.492 50.8577 41.5031 54.9207 39.6338 58.0363L42.2062 59.5797C44.4329 55.8686 45.492 51.2276 45.492 45.752H42.492ZM39.628 58.046C37.8079 61.1321 35.3784 63.3969 32.327 64.8835L33.641 67.5805C37.2456 65.8244 40.1067 63.1399 42.2121 59.57L39.628 58.046ZM32.3419 64.8764C29.3182 66.3087 25.9564 67.036 22.232 67.036V70.036C26.3583 70.036 30.1645 69.2273 33.6261 67.5876L32.3419 64.8764ZM138.9 64.056L138.128 65.3422L138.136 65.347L138.144 65.3517L138.9 64.056ZM126.74 51.768L125.439 52.5145L125.444 52.5238L126.74 51.768ZM126.74 17.08L128.036 17.8358L128.041 17.8265L126.74 17.08ZM138.9 4.792L139.656 6.08766L139.664 6.083L139.672 6.07824L138.9 4.792ZM174.228 4.792L173.456 6.07824L173.469 6.08576L173.482 6.09305L174.228 4.792ZM186.388 16.952L185.083 17.6915L185.088 17.6997L185.092 17.7078L186.388 16.952ZM186.388 51.768L185.087 51.0215L185.083 51.0285L186.388 51.768ZM174.228 64.056L174.984 65.3517L174.99 65.3478L174.228 64.056ZM168.34 55.224L167.531 53.9612L167.531 53.9612L168.34 55.224ZM176.148 46.648L177.477 47.344L177.48 47.3376L177.483 47.3312L176.148 46.648ZM176.148 22.2L174.813 22.8832L174.816 22.8896L174.819 22.896L176.148 22.2ZM144.788 13.496L143.993 12.224L143.986 12.2285L143.979 12.2332L144.788 13.496ZM136.98 22.2L138.309 22.896L138.312 22.8896L138.315 22.8832L136.98 22.2ZM136.98 46.648L135.645 47.3312L135.648 47.3376L135.651 47.344L136.98 46.648ZM144.788 55.224L143.979 56.4868L143.986 56.4914L143.993 56.496L144.788 55.224ZM156.564 67.036C150.14 67.036 144.519 65.5973 139.656 62.7603L138.144 65.3517C143.521 68.488 149.676 70.036 156.564 70.036V67.036ZM139.672 62.7698C134.767 59.8267 130.894 55.9124 128.036 51.0122L125.444 52.5238C128.559 57.8636 132.793 62.1413 138.128 65.3422L139.672 62.7698ZM128.041 51.0215C125.193 46.0585 123.76 40.5161 123.76 34.36H120.76C120.76 41.0039 122.313 47.0668 125.439 52.5145L128.041 51.0215ZM123.76 34.36C123.76 28.2037 125.193 22.7082 128.036 17.8358L125.444 16.3242C122.313 21.6918 120.76 27.7163 120.76 34.36H123.76ZM128.041 17.8265C130.899 12.8458 134.765 8.9404 139.656 6.08766L138.144 3.49633C132.795 6.61693 128.554 10.9035 125.439 16.3335L128.041 17.8265ZM139.672 6.07824C144.533 3.16172 150.148 1.684 156.564 1.684V-1.316C149.668 -1.316 143.507 0.278275 138.128 3.50576L139.672 6.07824ZM156.564 1.684C162.98 1.684 168.595 3.16172 173.456 6.07824L175 3.50576C169.621 0.278275 163.46 -1.316 156.564 -1.316V1.684ZM173.482 6.09305C178.459 8.94873 182.317 12.8102 185.083 17.6915L187.693 16.2125C184.656 10.8538 180.408 6.60859 174.975 3.49095L173.482 6.09305ZM185.092 17.7078C187.933 22.5771 189.368 28.1145 189.368 34.36H192.368C192.368 27.6348 190.817 21.5668 187.684 16.1962L185.092 17.7078ZM189.368 34.36C189.368 40.5161 187.935 46.0585 185.087 51.0215L187.689 52.5145C190.815 47.0668 192.368 41.0039 192.368 34.36H189.368ZM185.083 51.0285C182.315 55.9137 178.451 59.8218 173.466 62.7642L174.99 65.3478C180.415 62.1462 184.659 57.8623 187.693 52.5075L185.083 51.0285ZM173.472 62.7603C168.609 65.5973 162.988 67.036 156.564 67.036V70.036C163.452 70.036 169.607 68.488 174.984 65.3517L173.472 62.7603ZM156.564 59.924C161.331 59.924 165.547 58.7964 169.15 56.4868L167.531 53.9612C164.477 55.9183 160.842 56.924 156.564 56.924V59.924ZM169.15 56.4868C172.702 54.2094 175.481 51.1532 177.477 47.344L174.819 45.952C173.06 49.3108 170.634 51.9719 167.531 53.9612L169.15 56.4868ZM177.483 47.3312C179.479 43.4304 180.464 39.0967 180.464 34.36H177.464C177.464 38.6686 176.572 42.5269 174.813 45.9648L177.483 47.3312ZM180.464 34.36C180.464 29.6239 179.479 25.327 177.477 21.504L174.819 22.896C176.571 26.241 177.464 30.0508 177.464 34.36H180.464ZM177.483 21.5168C175.491 17.6216 172.711 14.516 169.15 12.2332L167.531 14.7588C170.625 16.7426 173.051 19.4397 174.813 22.8832L177.483 21.5168ZM169.15 12.2332C165.547 9.92358 161.331 8.796 156.564 8.796V11.796C160.842 11.796 164.477 12.8017 167.531 14.7588L169.15 12.2332ZM156.564 8.796C151.875 8.796 147.669 9.92664 143.993 12.224L145.583 14.768C148.734 12.7987 152.378 11.796 156.564 11.796V8.796ZM143.979 12.2332C140.417 14.516 137.637 17.6216 135.645 21.5168L138.315 22.8832C140.077 19.4397 142.503 16.7426 145.598 14.7588L143.979 12.2332ZM135.651 21.504C133.649 25.327 132.664 29.6239 132.664 34.36H135.664C135.664 30.0508 136.557 26.241 138.309 22.896L135.651 21.504ZM132.664 34.36C132.664 39.0967 133.649 43.4304 135.645 47.3312L138.315 45.9648C136.556 42.5269 135.664 38.6686 135.664 34.36H132.664ZM135.651 47.344C137.647 51.1532 140.426 54.2094 143.979 56.4868L145.598 53.9612C142.494 51.9719 140.068 49.3108 138.309 45.952L135.651 47.344ZM143.993 56.496C147.669 58.7934 151.875 59.924 156.564 59.924V56.924C152.378 56.924 148.734 55.9213 145.583 53.952L143.993 56.496ZM205.585 67H204.085V68.5H205.585V67ZM210.449 6.712L211.51 7.77266L211.51 7.77266L210.449 6.712ZM237.585 1.71999H239.085V0.219994H237.585V1.71999ZM237.585 11.832V13.332H239.085V11.832H237.585ZM219.665 14.264L218.604 13.2033L218.59 13.2177L218.576 13.2324L219.665 14.264ZM217.361 67V68.5H218.861V67H217.361ZM207.085 67V20.28H204.085V67H207.085ZM207.085 20.28C207.085 14.7641 208.618 10.6642 211.51 7.77266L209.388 5.65134C205.795 9.24515 204.085 14.1906 204.085 20.28H207.085ZM211.51 7.77266C214.494 4.78859 218.642 3.21999 224.145 3.21999V0.219994C218.043 0.219994 213.06 1.9794 209.388 5.65134L211.51 7.77266ZM224.145 3.21999H237.585V0.219994H224.145V3.21999ZM236.085 1.71999V11.832H239.085V1.71999H236.085ZM237.585 10.332H226.321V13.332H237.585V10.332ZM226.321 10.332C223.204 10.332 220.569 11.2392 218.604 13.2033L220.726 15.3247C222.004 14.0462 223.806 13.332 226.321 13.332V10.332ZM218.576 13.2324C216.704 15.208 215.861 17.8816 215.861 21.048H218.861C218.861 18.4118 219.554 16.5627 220.754 15.2956L218.576 13.2324ZM215.861 21.048V67H218.861V21.048H215.861ZM217.361 65.5H205.585V68.5H217.361V65.5ZM259.221 64.056L258.389 65.3041L258.397 65.3095L258.405 65.3147L259.221 64.056ZM248.597 51.64L247.242 52.284L247.242 52.284L248.597 51.64ZM248.981 17.08L250.305 17.7859L250.309 17.7768L248.981 17.08ZM260.757 4.792L261.513 6.08766L261.521 6.083L261.529 6.07824L260.757 4.792ZM296.981 4.664L296.206 5.94828L296.206 5.94828L296.981 4.664ZM308.373 16.824L307.04 17.5125L307.045 17.5212L307.049 17.5299L308.373 16.824ZM312.469 67V68.5H313.969V67H312.469ZM300.565 67H299.065V68.5H300.565V67ZM300.565 53.688H302.065V52.188H300.565V53.688ZM300.309 53.688V52.188H299.396L298.977 52.9989L300.309 53.688ZM295.061 60.856L293.981 59.8155L293.98 59.8163L295.061 60.856ZM286.997 66.36L286.384 64.9908L286.384 64.9908L286.997 66.36ZM289.941 55.352L290.742 56.6203L290.751 56.6148L289.941 55.352ZM297.621 46.648L296.279 45.9771L296.273 45.9897L297.621 46.648ZM297.749 21.944L296.395 22.5889L296.401 22.6019L296.407 22.6148L297.749 21.944ZM290.325 13.496L289.501 14.7491L289.512 14.7568L289.524 14.7642L290.325 13.496ZM267.029 13.496L266.22 12.2332L266.212 12.238L266.205 12.2429L267.029 13.496ZM259.477 22.2L258.129 21.5417L258.126 21.5484L258.123 21.5551L259.477 22.2ZM259.477 46.648L258.117 47.2806L258.123 47.2929L259.477 46.648ZM266.901 55.224L266.077 56.4771L266.077 56.4771L266.901 55.224ZM275.605 67.036C269.535 67.036 264.367 65.6039 260.037 62.7973L258.405 65.3147C263.291 68.4814 269.045 70.036 275.605 70.036V67.036ZM260.053 62.8079C255.68 59.8926 252.315 55.9668 249.952 50.996L247.242 52.284C249.828 57.7238 253.546 62.0754 258.389 65.3041L260.053 62.8079ZM249.952 50.996C247.582 46.0105 246.385 40.4734 246.385 34.36H243.385C243.385 40.8759 244.663 46.8589 247.242 52.284L249.952 50.996ZM246.385 34.36C246.385 28.1804 247.701 22.6669 250.305 17.7859L247.657 16.3741C244.799 21.7331 243.385 27.7396 243.385 34.36H246.385ZM250.309 17.7768C252.908 12.8231 256.634 8.93368 261.513 6.08766L260.001 3.49633C254.64 6.62364 250.515 10.9262 247.653 16.3832L250.309 17.7768ZM261.529 6.07824C266.373 3.17182 272.238 1.684 279.189 1.684V-1.316C271.804 -1.316 265.381 0.268174 259.985 3.50576L261.529 6.07824ZM279.189 1.684C285.882 1.684 291.533 3.12816 296.206 5.94828L297.756 3.37972C292.531 0.226502 286.32 -1.316 279.189 -1.316V1.684ZM296.206 5.94828C300.919 8.79217 304.523 12.6396 307.04 17.5125L309.706 16.1355C306.933 10.7684 302.942 6.50915 297.756 3.37972L296.206 5.94828ZM307.049 17.5299C309.654 22.4138 310.969 27.8853 310.969 33.976H313.969C313.969 27.4374 312.553 21.4742 309.697 16.1181L307.049 17.5299ZM310.969 33.976V67H313.969V33.976H310.969ZM312.469 65.5H300.565V68.5H312.469V65.5ZM302.065 67V53.688H299.065V67H302.065ZM300.565 52.188H300.309V55.188H300.565V52.188ZM298.977 52.9989C297.772 55.3275 296.113 57.6008 293.981 59.8155L296.141 61.8965C298.446 59.5032 300.286 56.9978 301.641 54.3771L298.977 52.9989ZM293.98 59.8163C291.999 61.8763 289.478 63.6068 286.384 64.9908L287.61 67.7292C291.001 66.2118 293.856 64.273 296.142 61.8957L293.98 59.8163ZM286.384 64.9908C283.373 66.3381 279.792 67.036 275.605 67.036V70.036C280.122 70.036 284.136 69.2832 287.61 67.7292L286.384 64.9908ZM278.677 59.924C283.194 59.924 287.233 58.8363 290.742 56.6202L289.14 54.0838C286.163 55.9637 282.693 56.924 278.677 56.924V59.924ZM290.751 56.6148C294.318 54.3281 297.06 51.2141 298.969 47.3063L296.273 45.9897C294.598 49.4206 292.22 52.1093 289.132 54.0892L290.751 56.6148ZM298.963 47.3188C300.954 43.3361 301.937 38.9217 301.937 34.104H298.937C298.937 38.5023 298.043 42.4505 296.279 45.9772L298.963 47.3188ZM301.937 34.104C301.937 29.3787 301 25.0909 299.091 21.2732L296.407 22.6148C298.083 25.9651 298.937 29.784 298.937 34.104H301.937ZM299.103 21.2991C297.279 17.4687 294.617 14.4326 291.126 12.2278L289.524 14.7642C292.518 16.6554 294.805 19.2513 296.395 22.5889L299.103 21.2991ZM291.149 12.2429C287.633 9.92942 283.541 8.796 278.933 8.796V11.796C283.029 11.796 286.532 12.7959 289.501 14.7491L291.149 12.2429ZM278.933 8.796C274.087 8.796 269.827 9.92074 266.22 12.2332L267.839 14.7588C270.887 12.8046 274.563 11.796 278.933 11.796V8.796ZM266.205 12.2429C262.725 14.5318 260.033 17.6439 258.129 21.5417L260.825 22.8583C262.505 19.4174 264.847 16.7269 267.853 14.7491L266.205 12.2429ZM258.123 21.5551C256.306 25.3705 255.417 29.6926 255.417 34.488H258.417C258.417 30.0674 259.235 26.1975 260.831 22.8449L258.123 21.5551ZM255.417 34.488C255.417 39.1225 256.309 43.3946 258.117 47.2806L260.837 46.0154C259.231 42.5627 258.417 38.7281 258.417 34.488H255.417ZM258.123 47.2929C259.944 51.1183 262.6 54.1897 266.077 56.4771L267.725 53.9709C264.717 51.9917 262.423 49.3457 260.831 46.0031L258.123 47.2929ZM266.077 56.4771C269.607 58.7996 273.832 59.924 278.677 59.924V56.924C274.306 56.924 270.681 55.915 267.725 53.9709L266.077 56.4771Z" fill="black" mask="url(#path-1-outside-1_459_2)"/>
</svg>
