<svg width="316" height="73" viewBox="0 0 316 73" fill="none" xmlns="http://www.w3.org/2000/svg">
<mask id="path-1-outside-1_533_4" maskUnits="userSpaceOnUse" x="0.34375" y="0.184082" width="316" height="72" fill="black">
<rect fill="white" x="0.34375" y="0.184082" width="316" height="72"/>
<path d="M24.2318 70.5361C20.1357 70.5361 16.4238 69.7681 13.0957 68.2321C9.85308 66.6108 7.25042 64.1361 5.28775 60.8081C3.32508 57.3947 2.34375 53.0427 2.34375 47.7521V3.72008H14.1198V49.8001C14.1198 52.1041 14.5891 54.0668 15.5278 55.6881C16.4664 57.3094 17.7037 58.5041 19.2397 59.2721C20.7757 60.0401 22.3971 60.4241 24.1038 60.4241C25.8104 60.4241 27.4317 60.0401 28.9678 59.2721C30.5038 58.4188 31.7411 57.2241 32.6797 55.6881C33.7038 54.0668 34.2158 52.1041 34.2158 49.8001V24.4561C34.2158 19.4214 35.1544 15.2827 37.0317 12.0401C38.9091 8.71208 41.4691 6.23741 44.7118 4.61608C47.9544 2.99475 51.6238 2.18408 55.7197 2.18408C59.8158 2.18408 63.4851 2.99475 66.7278 4.61608C69.9704 6.23741 72.5304 8.71208 74.4078 12.0401C76.2851 15.2827 77.2238 19.4214 77.2238 24.4561V49.8001C77.2238 52.1041 77.6931 54.0668 78.6318 55.6881C79.5704 57.2241 80.8077 58.4188 82.3438 59.2721C83.8798 60.0401 85.5438 60.4241 87.3358 60.4241C89.1278 60.4241 90.7491 60.0401 92.1998 59.2721C93.6504 58.4188 94.8451 57.2241 95.7838 55.6881C96.7224 54.0668 97.1917 52.1041 97.1917 49.8001V3.72008H109.096V47.7521C109.096 53.0427 108.114 57.3947 106.152 60.8081C104.189 64.1361 101.544 66.6108 98.2158 68.2321C94.9731 69.7681 91.3464 70.5361 87.3358 70.5361C83.4104 70.5361 79.7838 69.7681 76.4557 68.2321C73.1278 66.6108 70.4398 64.1361 68.3918 60.8081C66.4291 57.3947 65.4478 53.0427 65.4478 47.7521V22.6641C65.4478 20.2747 64.9784 18.3121 64.0397 16.7761C63.1011 15.2401 61.9064 14.1307 60.4557 13.4481C59.0051 12.6801 57.4264 12.2961 55.7197 12.2961C54.0131 12.2961 52.3918 12.6801 50.8558 13.4481C49.4051 14.1307 48.2104 15.2401 47.2718 16.7761C46.4184 18.3121 45.9918 20.2747 45.9918 22.6641V47.7521C45.9918 53.0427 44.9678 57.3947 42.9198 60.8081C40.9571 64.1361 38.3117 66.6108 34.9837 68.2321C31.7411 69.7681 28.1571 70.5361 24.2318 70.5361Z"/>
<path d="M158.564 70.5361C151.908 70.5361 146.02 69.0428 140.9 66.0561C135.78 62.9841 131.726 58.8881 128.74 53.7681C125.753 48.5627 124.26 42.7601 124.26 36.3601C124.26 29.9601 125.753 24.2001 128.74 19.0801C131.726 13.8747 135.78 9.77875 140.9 6.79208C146.02 3.72008 151.908 2.18408 158.564 2.18408C165.22 2.18408 171.108 3.72008 176.228 6.79208C181.433 9.77875 185.486 13.8321 188.388 18.9521C191.374 24.0721 192.868 29.8747 192.868 36.3601C192.868 42.7601 191.374 48.5627 188.388 53.7681C185.486 58.8881 181.433 62.9841 176.228 66.0561C171.108 69.0428 165.22 70.5361 158.564 70.5361ZM158.564 60.4241C163.086 60.4241 167.012 59.3574 170.34 57.2241C173.668 55.0907 176.27 52.2321 178.148 48.6481C180.025 44.9787 180.964 40.8827 180.964 36.3601C180.964 31.8374 180.025 27.7841 178.148 24.2001C176.27 20.5307 173.668 17.6294 170.34 15.4961C167.012 13.3627 163.086 12.2961 158.564 12.2961C154.126 12.2961 150.201 13.3627 146.788 15.4961C143.46 17.6294 140.857 20.5307 138.98 24.2001C137.102 27.7841 136.164 31.8374 136.164 36.3601C136.164 40.8827 137.102 44.9787 138.98 48.6481C140.857 52.2321 143.46 55.0907 146.788 57.2241C150.201 59.3574 154.126 60.4241 158.564 60.4241Z"/>
<path d="M207.585 69.0001V22.2801C207.585 16.4774 209.206 11.9547 212.449 8.71208C215.777 5.38408 220.342 3.72008 226.145 3.72008H239.585V13.8321H228.321C225.505 13.8321 223.286 14.6427 221.665 16.2641C220.129 17.8854 219.361 20.1467 219.361 23.0481V69.0001H207.585Z"/>
<path d="M277.605 70.5361C271.29 70.5361 265.829 69.0428 261.221 66.0561C256.613 62.9841 253.071 58.8454 250.597 53.6401C248.122 48.4347 246.885 42.6747 246.885 36.3601C246.885 29.9601 248.25 24.2001 250.981 19.0801C253.711 13.8747 257.637 9.77875 262.757 6.79208C267.877 3.72008 274.021 2.18408 281.189 2.18408C288.101 2.18408 294.031 3.67742 298.981 6.66408C303.93 9.65075 307.727 13.7041 310.373 18.8241C313.103 23.9441 314.469 29.6614 314.469 35.9761V69.0001H302.565V55.6881H302.309C301.029 58.1628 299.279 60.5521 297.061 62.8561C294.927 65.0747 292.239 66.9094 288.997 68.3601C285.754 69.8108 281.957 70.5361 277.605 70.5361ZM280.677 60.4241C284.943 60.4241 288.698 59.4001 291.941 57.3521C295.269 55.2187 297.829 52.3174 299.621 48.6481C301.498 44.8934 302.437 40.7121 302.437 36.1041C302.437 31.5814 301.541 27.5281 299.749 23.9441C298.042 20.3601 295.567 17.5441 292.325 15.4961C289.082 13.3627 285.285 12.2961 280.933 12.2961C276.325 12.2961 272.357 13.3627 269.029 15.4961C265.786 17.6294 263.269 20.5307 261.477 24.2001C259.77 27.7841 258.917 31.8801 258.917 36.4881C258.917 40.9254 259.77 44.9787 261.477 48.6481C263.183 52.2321 265.658 55.0907 268.901 57.2241C272.143 59.3574 276.069 60.4241 280.677 60.4241Z"/>
</mask>
<path d="M24.2318 70.5361C20.1357 70.5361 16.4238 69.7681 13.0957 68.2321C9.85308 66.6108 7.25042 64.1361 5.28775 60.8081C3.32508 57.3947 2.34375 53.0427 2.34375 47.7521V3.72008H14.1198V49.8001C14.1198 52.1041 14.5891 54.0668 15.5278 55.6881C16.4664 57.3094 17.7037 58.5041 19.2397 59.2721C20.7757 60.0401 22.3971 60.4241 24.1038 60.4241C25.8104 60.4241 27.4317 60.0401 28.9678 59.2721C30.5038 58.4188 31.7411 57.2241 32.6797 55.6881C33.7038 54.0668 34.2158 52.1041 34.2158 49.8001V24.4561C34.2158 19.4214 35.1544 15.2827 37.0317 12.0401C38.9091 8.71208 41.4691 6.23741 44.7118 4.61608C47.9544 2.99475 51.6238 2.18408 55.7197 2.18408C59.8158 2.18408 63.4851 2.99475 66.7278 4.61608C69.9704 6.23741 72.5304 8.71208 74.4078 12.0401C76.2851 15.2827 77.2238 19.4214 77.2238 24.4561V49.8001C77.2238 52.1041 77.6931 54.0668 78.6318 55.6881C79.5704 57.2241 80.8077 58.4188 82.3438 59.2721C83.8798 60.0401 85.5438 60.4241 87.3358 60.4241C89.1278 60.4241 90.7491 60.0401 92.1998 59.2721C93.6504 58.4188 94.8451 57.2241 95.7838 55.6881C96.7224 54.0668 97.1917 52.1041 97.1917 49.8001V3.72008H109.096V47.7521C109.096 53.0427 108.114 57.3947 106.152 60.8081C104.189 64.1361 101.544 66.6108 98.2158 68.2321C94.9731 69.7681 91.3464 70.5361 87.3358 70.5361C83.4104 70.5361 79.7838 69.7681 76.4557 68.2321C73.1278 66.6108 70.4398 64.1361 68.3918 60.8081C66.4291 57.3947 65.4478 53.0427 65.4478 47.7521V22.6641C65.4478 20.2747 64.9784 18.3121 64.0397 16.7761C63.1011 15.2401 61.9064 14.1307 60.4557 13.4481C59.0051 12.6801 57.4264 12.2961 55.7197 12.2961C54.0131 12.2961 52.3918 12.6801 50.8558 13.4481C49.4051 14.1307 48.2104 15.2401 47.2718 16.7761C46.4184 18.3121 45.9918 20.2747 45.9918 22.6641V47.7521C45.9918 53.0427 44.9678 57.3947 42.9198 60.8081C40.9571 64.1361 38.3117 66.6108 34.9837 68.2321C31.7411 69.7681 28.1571 70.5361 24.2318 70.5361Z" fill="white"/>
<path d="M158.564 70.5361C151.908 70.5361 146.02 69.0428 140.9 66.0561C135.78 62.9841 131.726 58.8881 128.74 53.7681C125.753 48.5627 124.26 42.7601 124.26 36.3601C124.26 29.9601 125.753 24.2001 128.74 19.0801C131.726 13.8747 135.78 9.77875 140.9 6.79208C146.02 3.72008 151.908 2.18408 158.564 2.18408C165.22 2.18408 171.108 3.72008 176.228 6.79208C181.433 9.77875 185.486 13.8321 188.388 18.9521C191.374 24.0721 192.868 29.8747 192.868 36.3601C192.868 42.7601 191.374 48.5627 188.388 53.7681C185.486 58.8881 181.433 62.9841 176.228 66.0561C171.108 69.0428 165.22 70.5361 158.564 70.5361ZM158.564 60.4241C163.086 60.4241 167.012 59.3574 170.34 57.2241C173.668 55.0907 176.27 52.2321 178.148 48.6481C180.025 44.9787 180.964 40.8827 180.964 36.3601C180.964 31.8374 180.025 27.7841 178.148 24.2001C176.27 20.5307 173.668 17.6294 170.34 15.4961C167.012 13.3627 163.086 12.2961 158.564 12.2961C154.126 12.2961 150.201 13.3627 146.788 15.4961C143.46 17.6294 140.857 20.5307 138.98 24.2001C137.102 27.7841 136.164 31.8374 136.164 36.3601C136.164 40.8827 137.102 44.9787 138.98 48.6481C140.857 52.2321 143.46 55.0907 146.788 57.2241C150.201 59.3574 154.126 60.4241 158.564 60.4241Z" fill="white"/>
<path d="M207.585 69.0001V22.2801C207.585 16.4774 209.206 11.9547 212.449 8.71208C215.777 5.38408 220.342 3.72008 226.145 3.72008H239.585V13.8321H228.321C225.505 13.8321 223.286 14.6427 221.665 16.2641C220.129 17.8854 219.361 20.1467 219.361 23.0481V69.0001H207.585Z" fill="white"/>
<path d="M277.605 70.5361C271.29 70.5361 265.829 69.0428 261.221 66.0561C256.613 62.9841 253.071 58.8454 250.597 53.6401C248.122 48.4347 246.885 42.6747 246.885 36.3601C246.885 29.9601 248.25 24.2001 250.981 19.0801C253.711 13.8747 257.637 9.77875 262.757 6.79208C267.877 3.72008 274.021 2.18408 281.189 2.18408C288.101 2.18408 294.031 3.67742 298.981 6.66408C303.93 9.65075 307.727 13.7041 310.373 18.8241C313.103 23.9441 314.469 29.6614 314.469 35.9761V69.0001H302.565V55.6881H302.309C301.029 58.1628 299.279 60.5521 297.061 62.8561C294.927 65.0747 292.239 66.9094 288.997 68.3601C285.754 69.8108 281.957 70.5361 277.605 70.5361ZM280.677 60.4241C284.943 60.4241 288.698 59.4001 291.941 57.3521C295.269 55.2187 297.829 52.3174 299.621 48.6481C301.498 44.8934 302.437 40.7121 302.437 36.1041C302.437 31.5814 301.541 27.5281 299.749 23.9441C298.042 20.3601 295.567 17.5441 292.325 15.4961C289.082 13.3627 285.285 12.2961 280.933 12.2961C276.325 12.2961 272.357 13.3627 269.029 15.4961C265.786 17.6294 263.269 20.5307 261.477 24.2001C259.77 27.7841 258.917 31.8801 258.917 36.4881C258.917 40.9254 259.77 44.9787 261.477 48.6481C263.183 52.2321 265.658 55.0907 268.901 57.2241C272.143 59.3574 276.069 60.4241 280.677 60.4241Z" fill="white"/>
<path d="M24.2318 70.5361C20.1357 70.5361 16.4238 69.7681 13.0957 68.2321C9.85308 66.6108 7.25042 64.1361 5.28775 60.8081C3.32508 57.3947 2.34375 53.0427 2.34375 47.7521V3.72008H14.1198V49.8001C14.1198 52.1041 14.5891 54.0668 15.5278 55.6881C16.4664 57.3094 17.7037 58.5041 19.2397 59.2721C20.7757 60.0401 22.3971 60.4241 24.1038 60.4241C25.8104 60.4241 27.4317 60.0401 28.9678 59.2721C30.5038 58.4188 31.7411 57.2241 32.6797 55.6881C33.7038 54.0668 34.2158 52.1041 34.2158 49.8001V24.4561C34.2158 19.4214 35.1544 15.2827 37.0317 12.0401C38.9091 8.71208 41.4691 6.23741 44.7118 4.61608C47.9544 2.99475 51.6238 2.18408 55.7197 2.18408C59.8158 2.18408 63.4851 2.99475 66.7278 4.61608C69.9704 6.23741 72.5304 8.71208 74.4078 12.0401C76.2851 15.2827 77.2238 19.4214 77.2238 24.4561V49.8001C77.2238 52.1041 77.6931 54.0668 78.6318 55.6881C79.5704 57.2241 80.8077 58.4188 82.3438 59.2721C83.8798 60.0401 85.5438 60.4241 87.3358 60.4241C89.1278 60.4241 90.7491 60.0401 92.1998 59.2721C93.6504 58.4188 94.8451 57.2241 95.7838 55.6881C96.7224 54.0668 97.1917 52.1041 97.1917 49.8001V3.72008H109.096V47.7521C109.096 53.0427 108.114 57.3947 106.152 60.8081C104.189 64.1361 101.544 66.6108 98.2158 68.2321C94.9731 69.7681 91.3464 70.5361 87.3358 70.5361C83.4104 70.5361 79.7838 69.7681 76.4557 68.2321C73.1278 66.6108 70.4398 64.1361 68.3918 60.8081C66.4291 57.3947 65.4478 53.0427 65.4478 47.7521V22.6641C65.4478 20.2747 64.9784 18.3121 64.0397 16.7761C63.1011 15.2401 61.9064 14.1307 60.4557 13.4481C59.0051 12.6801 57.4264 12.2961 55.7197 12.2961C54.0131 12.2961 52.3918 12.6801 50.8558 13.4481C49.4051 14.1307 48.2104 15.2401 47.2718 16.7761C46.4184 18.3121 45.9918 20.2747 45.9918 22.6641V47.7521C45.9918 53.0427 44.9678 57.3947 42.9198 60.8081C40.9571 64.1361 38.3117 66.6108 34.9837 68.2321C31.7411 69.7681 28.1571 70.5361 24.2318 70.5361Z" stroke="white" stroke-width="3" mask="url(#path-1-outside-1_533_4)"/>
<path d="M158.564 70.5361C151.908 70.5361 146.02 69.0428 140.9 66.0561C135.78 62.9841 131.726 58.8881 128.74 53.7681C125.753 48.5627 124.26 42.7601 124.26 36.3601C124.26 29.9601 125.753 24.2001 128.74 19.0801C131.726 13.8747 135.78 9.77875 140.9 6.79208C146.02 3.72008 151.908 2.18408 158.564 2.18408C165.22 2.18408 171.108 3.72008 176.228 6.79208C181.433 9.77875 185.486 13.8321 188.388 18.9521C191.374 24.0721 192.868 29.8747 192.868 36.3601C192.868 42.7601 191.374 48.5627 188.388 53.7681C185.486 58.8881 181.433 62.9841 176.228 66.0561C171.108 69.0428 165.22 70.5361 158.564 70.5361ZM158.564 60.4241C163.086 60.4241 167.012 59.3574 170.34 57.2241C173.668 55.0907 176.27 52.2321 178.148 48.6481C180.025 44.9787 180.964 40.8827 180.964 36.3601C180.964 31.8374 180.025 27.7841 178.148 24.2001C176.27 20.5307 173.668 17.6294 170.34 15.4961C167.012 13.3627 163.086 12.2961 158.564 12.2961C154.126 12.2961 150.201 13.3627 146.788 15.4961C143.46 17.6294 140.857 20.5307 138.98 24.2001C137.102 27.7841 136.164 31.8374 136.164 36.3601C136.164 40.8827 137.102 44.9787 138.98 48.6481C140.857 52.2321 143.46 55.0907 146.788 57.2241C150.201 59.3574 154.126 60.4241 158.564 60.4241Z" stroke="white" stroke-width="3" mask="url(#path-1-outside-1_533_4)"/>
<path d="M207.585 69.0001V22.2801C207.585 16.4774 209.206 11.9547 212.449 8.71208C215.777 5.38408 220.342 3.72008 226.145 3.72008H239.585V13.8321H228.321C225.505 13.8321 223.286 14.6427 221.665 16.2641C220.129 17.8854 219.361 20.1467 219.361 23.0481V69.0001H207.585Z" stroke="white" stroke-width="3" mask="url(#path-1-outside-1_533_4)"/>
<path d="M277.605 70.5361C271.29 70.5361 265.829 69.0428 261.221 66.0561C256.613 62.9841 253.071 58.8454 250.597 53.6401C248.122 48.4347 246.885 42.6747 246.885 36.3601C246.885 29.9601 248.25 24.2001 250.981 19.0801C253.711 13.8747 257.637 9.77875 262.757 6.79208C267.877 3.72008 274.021 2.18408 281.189 2.18408C288.101 2.18408 294.031 3.67742 298.981 6.66408C303.93 9.65075 307.727 13.7041 310.373 18.8241C313.103 23.9441 314.469 29.6614 314.469 35.9761V69.0001H302.565V55.6881H302.309C301.029 58.1628 299.279 60.5521 297.061 62.8561C294.927 65.0747 292.239 66.9094 288.997 68.3601C285.754 69.8108 281.957 70.5361 277.605 70.5361ZM280.677 60.4241C284.943 60.4241 288.698 59.4001 291.941 57.3521C295.269 55.2187 297.829 52.3174 299.621 48.6481C301.498 44.8934 302.437 40.7121 302.437 36.1041C302.437 31.5814 301.541 27.5281 299.749 23.9441C298.042 20.3601 295.567 17.5441 292.325 15.4961C289.082 13.3627 285.285 12.2961 280.933 12.2961C276.325 12.2961 272.357 13.3627 269.029 15.4961C265.786 17.6294 263.269 20.5307 261.477 24.2001C259.77 27.7841 258.917 31.8801 258.917 36.4881C258.917 40.9254 259.77 44.9787 261.477 48.6481C263.183 52.2321 265.658 55.0907 268.901 57.2241C272.143 59.3574 276.069 60.4241 280.677 60.4241Z" stroke="white" stroke-width="3" mask="url(#path-1-outside-1_533_4)"/>
</svg>
