<svg width="512" height="512" viewBox="0 0 512 512" fill="none" xmlns="http://www.w3.org/2000/svg">
<rect width="512" height="512" rx="100" fill="black"/>
<path d="M148.675 337.507L148.71 337.524L148.745 337.54C157.403 341.529 167.015 343.5 177.54 343.5C187.655 343.5 196.955 341.522 205.4 337.53L205.412 337.524L205.424 337.518C214.175 333.263 221.125 326.761 226.253 318.085C231.651 309.1 234.26 297.797 234.26 284.333V221.936C234.26 216.298 235.267 211.886 237.109 208.553C239.22 205.121 241.837 202.737 244.943 201.278L244.97 201.265L244.996 201.252C248.479 199.514 252.137 198.65 256 198.65C259.862 198.65 263.393 199.513 266.633 201.225L266.685 201.253L266.738 201.278C269.858 202.743 272.483 205.142 274.599 208.598C276.631 211.916 277.74 216.308 277.74 221.936V284.333C277.74 297.785 280.238 309.076 285.409 318.053L285.428 318.085L285.447 318.117C290.785 326.775 297.833 333.266 306.576 337.518L306.599 337.529L306.623 337.54C315.267 341.522 324.663 343.5 334.779 343.5C345.099 343.5 354.507 341.526 362.958 337.53L362.971 337.524L362.983 337.518C371.736 333.261 378.688 326.757 383.817 318.077L383.824 318.065L383.831 318.053C389.002 309.076 391.5 297.785 391.5 284.333V174.82V172.32H389H359.338H356.838V174.82V289.427C356.838 294.804 355.745 299.223 353.682 302.791C351.556 306.256 348.889 308.907 345.682 310.801C342.472 312.486 338.855 313.35 334.779 313.35C330.703 313.35 326.957 312.486 323.505 310.772C320.095 308.871 317.346 306.224 315.239 302.791C313.176 299.223 312.083 294.804 312.083 289.427V226.393C312.083 213.583 309.693 202.824 304.736 194.271C299.827 185.59 293.092 179.077 284.546 174.812C276.076 170.585 266.543 168.5 256 168.5C245.457 168.5 235.924 170.585 227.454 174.812C218.908 179.077 212.173 185.59 207.264 194.271C202.307 202.824 199.917 213.583 199.917 226.393V289.427C199.917 294.78 198.729 299.176 196.477 302.734L196.467 302.75L196.458 302.766C194.348 306.211 191.594 308.866 188.175 310.772C184.707 312.494 181.065 313.35 177.221 313.35C173.358 313.35 169.7 312.486 166.217 310.748C162.866 309.076 160.131 306.466 158.014 302.817C155.941 299.244 154.843 294.817 154.843 289.427V174.82V172.32H152.343H123H120.5V174.82V284.333C120.5 297.785 122.998 309.076 128.169 318.053L128.176 318.065L128.183 318.077C133.302 326.741 140.136 333.245 148.675 337.507Z" fill="white" stroke="white" stroke-width="5"/>
</svg>
