<svg width="313" height="69" viewBox="0 0 313 69" fill="none" xmlns="http://www.w3.org/2000/svg">
<path d="M22.232 68.536C18.136 68.536 14.424 67.768 11.096 66.232C7.85333 64.6107 5.25067 62.136 3.288 58.808C1.32533 55.3947 0.344001 51.0427 0.344001 45.752V1.71999H12.12V47.8C12.12 50.104 12.5893 52.0667 13.528 53.688C14.4667 55.3093 15.704 56.504 17.24 57.272C18.776 58.04 20.3973 58.424 22.104 58.424C23.8107 58.424 25.432 58.04 26.968 57.272C28.504 56.4187 29.7413 55.224 30.68 53.688C31.704 52.0667 32.216 50.104 32.216 47.8V22.456C32.216 17.4213 33.1547 13.2827 35.032 10.04C36.9093 6.712 39.4693 4.23733 42.712 2.616C45.9547 0.994665 49.624 0.183998 53.72 0.183998C57.816 0.183998 61.4853 0.994665 64.728 2.616C67.9707 4.23733 70.5307 6.712 72.408 10.04C74.2853 13.2827 75.224 17.4213 75.224 22.456V47.8C75.224 50.104 75.6933 52.0667 76.632 53.688C77.5707 55.224 78.808 56.4187 80.344 57.272C81.88 58.04 83.544 58.424 85.336 58.424C87.128 58.424 88.7493 58.04 90.2 57.272C91.6507 56.4187 92.8453 55.224 93.784 53.688C94.7227 52.0667 95.192 50.104 95.192 47.8V1.71999H107.096V45.752C107.096 51.0427 106.115 55.3947 104.152 58.808C102.189 62.136 99.544 64.6107 96.216 66.232C92.9733 67.768 89.3467 68.536 85.336 68.536C81.4107 68.536 77.784 67.768 74.456 66.232C71.128 64.6107 68.44 62.136 66.392 58.808C64.4293 55.3947 63.448 51.0427 63.448 45.752V20.664C63.448 18.2747 62.9787 16.312 62.04 14.776C61.1013 13.24 59.9067 12.1307 58.456 11.448C57.0053 10.68 55.4267 10.296 53.72 10.296C52.0133 10.296 50.392 10.68 48.856 11.448C47.4053 12.1307 46.2107 13.24 45.272 14.776C44.4187 16.312 43.992 18.2747 43.992 20.664V45.752C43.992 51.0427 42.968 55.3947 40.92 58.808C38.9573 62.136 36.312 64.6107 32.984 66.232C29.7413 67.768 26.1573 68.536 22.232 68.536ZM156.564 68.536C149.908 68.536 144.02 67.0427 138.9 64.056C133.78 60.984 129.727 56.888 126.74 51.768C123.753 46.5627 122.26 40.76 122.26 34.36C122.26 27.96 123.753 22.2 126.74 17.08C129.727 11.8747 133.78 7.77866 138.9 4.792C144.02 1.72 149.908 0.183998 156.564 0.183998C163.22 0.183998 169.108 1.72 174.228 4.792C179.433 7.77866 183.487 11.832 186.388 16.952C189.375 22.072 190.868 27.8747 190.868 34.36C190.868 40.76 189.375 46.5627 186.388 51.768C183.487 56.888 179.433 60.984 174.228 64.056C169.108 67.0427 163.22 68.536 156.564 68.536ZM156.564 58.424C161.087 58.424 165.012 57.3573 168.34 55.224C171.668 53.0907 174.271 50.232 176.148 46.648C178.025 42.9787 178.964 38.8827 178.964 34.36C178.964 29.8373 178.025 25.784 176.148 22.2C174.271 18.5307 171.668 15.6293 168.34 13.496C165.012 11.3627 161.087 10.296 156.564 10.296C152.127 10.296 148.201 11.3627 144.788 13.496C141.46 15.6293 138.857 18.5307 136.98 22.2C135.103 25.784 134.164 29.8373 134.164 34.36C134.164 38.8827 135.103 42.9787 136.98 46.648C138.857 50.232 141.46 53.0907 144.788 55.224C148.201 57.3573 152.127 58.424 156.564 58.424ZM205.585 67V20.28C205.585 14.4773 207.206 9.95466 210.449 6.712C213.777 3.384 218.342 1.71999 224.145 1.71999H237.585V11.832H226.321C223.505 11.832 221.286 12.6427 219.665 14.264C218.129 15.8853 217.361 18.1467 217.361 21.048V67H205.585ZM275.605 68.536C269.29 68.536 263.829 67.0427 259.221 64.056C254.613 60.984 251.072 56.8453 248.597 51.64C246.122 46.4347 244.885 40.6747 244.885 34.36C244.885 27.96 246.25 22.2 248.981 17.08C251.712 11.8747 255.637 7.77866 260.757 4.792C265.877 1.72 272.021 0.183998 279.189 0.183998C286.101 0.183998 292.032 1.67733 296.981 4.664C301.93 7.65066 305.728 11.704 308.373 16.824C311.104 21.944 312.469 27.6613 312.469 33.976V67H300.565V53.688H300.309C299.029 56.1627 297.28 58.552 295.061 60.856C292.928 63.0747 290.24 64.9093 286.997 66.36C283.754 67.8107 279.957 68.536 275.605 68.536ZM278.677 58.424C282.944 58.424 286.698 57.4 289.941 55.352C293.269 53.2187 295.829 50.3173 297.621 46.648C299.498 42.8933 300.437 38.712 300.437 34.104C300.437 29.5813 299.541 25.528 297.749 21.944C296.042 18.36 293.568 15.544 290.325 13.496C287.082 11.3627 283.285 10.296 278.933 10.296C274.325 10.296 270.357 11.3627 267.029 13.496C263.786 15.6293 261.269 18.5307 259.477 22.2C257.77 25.784 256.917 29.88 256.917 34.488C256.917 38.9253 257.77 42.9787 259.477 46.648C261.184 50.232 263.658 53.0907 266.901 55.224C270.144 57.3573 274.069 58.424 278.677 58.424Z" fill="white"/>
</svg>
